<?xml version="1.0" encoding="UTF-8" standalone="no"?>
<!DOCTYPE svg PUBLIC "-//W3C//DTD SVG 1.1//EN"
 "http://www.w3.org/Graphics/SVG/1.1/DTD/svg11.dtd">
<!-- Generated by graphviz version 2.38.0 (20140413.2041)
 -->
<!-- Title: gpg Pages: 1 -->
<svg width="1147pt" height="808pt"
 viewBox="0.00 0.00 1146.50 808.00" xmlns="http://www.w3.org/2000/svg" xmlns:xlink="http://www.w3.org/1999/xlink">
<g id="graph0" class="graph" transform="scale(1 1) rotate(0) translate(4 804)">
<title>gpg</title>
<polygon fill="white" stroke="none" points="-4,4 -4,-804 1142.5,-804 1142.5,4 -4,4"/>
<g id="clust2" class="cluster"><title>cluster_private</title>
<polygon fill="tomato" stroke="tomato" points="714.5,-369 714.5,-777 1036.5,-777 1036.5,-369 714.5,-369"/>
</g>
<g id="clust5" class="cluster"><title>cluster_public</title>
<polygon fill="lightblue" stroke="lightblue" points="238.5,-8 238.5,-792 703.5,-792 703.5,-8 238.5,-8"/>
</g>
<!-- gpg -->
<g id="node1" class="node"><title>gpg</title>
<polygon fill="none" stroke="black" points="82.5,-727.5 82.5,-763.5 136.5,-763.5 136.5,-727.5 82.5,-727.5"/>
<text text-anchor="middle" x="109.5" y="-741.8" font-family="Times,serif" font-size="14.00">gpg</text>
</g>
<!-- private keyring -->
<g id="node2" class="node"><title>private keyring</title>
<polygon fill="none" stroke="black" points="131,-547.5 131,-583.5 230,-583.5 230,-547.5 131,-547.5"/>
<text text-anchor="middle" x="180.5" y="-561.8" font-family="Times,serif" font-size="14.00">private keyring</text>
</g>
<!-- gpg&#45;&gt;private keyring -->
<g id="edge5" class="edge"><title>gpg&#45;&gt;private keyring</title>
<path fill="none" stroke="black" d="M116.308,-727.433C128.713,-696.333 155.078,-630.235 169.869,-593.152"/>
<polygon fill="black" stroke="black" points="173.713,-583.516 174.188,-594.471 171.86,-588.16 170.008,-592.804 170.008,-592.804 170.008,-592.804 171.86,-588.16 165.828,-591.137 173.713,-583.516 173.713,-583.516"/>
<text text-anchor="middle" x="183" y="-641.8" font-family="Times,serif" font-size="14.00">operates on</text>
</g>
<!-- public keyring -->
<g id="node3" class="node"><title>public keyring</title>
<polygon fill="none" stroke="black" points="0,-547.5 0,-583.5 95,-583.5 95,-547.5 0,-547.5"/>
<text text-anchor="middle" x="47.5" y="-561.8" font-family="Times,serif" font-size="14.00">public keyring</text>
</g>
<!-- gpg&#45;&gt;public keyring -->
<g id="edge4" class="edge"><title>gpg&#45;&gt;public keyring</title>
<path fill="none" stroke="black" d="M96.2441,-727.396C83.4028,-709.803 64.5787,-681.082 55.5,-653 49.276,-633.748 47.3784,-610.919 46.9819,-593.549"/>
<polygon fill="black" stroke="black" points="46.9038,-583.52 51.4816,-593.484 46.9428,-588.52 46.9818,-593.52 46.9818,-593.52 46.9818,-593.52 46.9428,-588.52 42.4819,-593.555 46.9038,-583.52 46.9038,-583.52"/>
<text text-anchor="middle" x="87" y="-641.8" font-family="Times,serif" font-size="14.00">operates on</text>
</g>
<!-- private key -->
<g id="node4" class="node"><title>private key</title>
<polygon fill="white" stroke="white" points="742,-722.5 742,-768.5 891,-768.5 891,-722.5 742,-722.5"/>
<text text-anchor="middle" x="816.5" y="-753.3" font-family="Times,serif" font-size="14.00">private key</text>
<polyline fill="none" stroke="white" points="742,-745.5 891,-745.5 "/>
<text text-anchor="start" x="750" y="-730.3" font-family="Times,serif" font-size="14.00">+ hash : Key fingerprint</text>
</g>
<!-- private key&#45;&gt;private keyring -->
<g id="edge2" class="edge"><title>private key&#45;&gt;private keyring</title>
<path fill="none" stroke="black" d="M758.522,-722.497C743.618,-717.144 727.542,-711.632 712.5,-707 506.335,-643.517 446.626,-645.719 241.89,-586.427"/>
<polygon fill="black" stroke="black" points="241.641,-586.354 234.762,-588.516 230.12,-582.997 237,-580.835 241.641,-586.354"/>
<text text-anchor="middle" x="244.946" y="-577.014" font-family="Times,serif" font-size="14.00">*</text>
<text text-anchor="middle" x="743.587" y="-720.192" font-family="Times,serif" font-size="14.00">*</text>
</g>
<!-- public key -->
<g id="node5" class="node"><title>public key</title>
<polygon fill="white" stroke="white" points="298,-176.5 298,-267.5 663,-267.5 663,-176.5 298,-176.5"/>
<text text-anchor="middle" x="480.5" y="-252.3" font-family="Times,serif" font-size="14.00">public key</text>
<polyline fill="none" stroke="white" points="298,-244.5 663,-244.5 "/>
<text text-anchor="start" x="306" y="-229.3" font-family="Times,serif" font-size="14.00">+ hash : Key fingerprint</text>
<text text-anchor="start" x="306" y="-214.3" font-family="Times,serif" font-size="14.00">+ created : Date created</text>
<text text-anchor="start" x="306" y="-199.3" font-family="Times,serif" font-size="14.00">+ expires : Expiration date</text>
<text text-anchor="start" x="306" y="-184.3" font-family="Times,serif" font-size="14.00">+ usage : One or more of certify, sign, encrypt and authenticate</text>
</g>
<!-- private key&#45;&gt;public key -->
<g id="edge1" class="edge"><title>private key&#45;&gt;public key</title>
<path fill="none" stroke="black" d="M848.902,-722.461C932.715,-662.805 1143.54,-494.245 1046.5,-369 999.458,-308.283 810.149,-268.323 663.269,-245.801"/>
<text text-anchor="middle" x="1102" y="-481.8" font-family="Times,serif" font-size="14.00">same hash as</text>
</g>
<!-- private key to smart card -->
<g id="node7" class="node"><title>private key to smart card</title>
<polygon fill="white" stroke="none" points="845,-566 844,-566 844,-565 845,-565 845,-566"/>
</g>
<!-- private key&#45;&gt;private key to smart card -->
<g id="edge8" class="edge"><title>private key&#45;&gt;private key to smart card</title>
<path fill="none" stroke="black" d="M819.99,-722.316C827.378,-675.346 843.971,-569.863 844.488,-566.579"/>
<text text-anchor="middle" x="815.84" y="-704.202" font-family="Times,serif" font-size="14.00">1</text>
</g>
<!-- public key&#45;&gt;public keyring -->
<g id="edge3" class="edge"><title>public key&#45;&gt;public keyring</title>
<path fill="none" stroke="black" d="M424.061,-267.512C331.691,-340.363 151.262,-482.665 78.7625,-539.844"/>
<polygon fill="black" stroke="black" points="78.6915,-539.9 76.4575,-546.756 69.2693,-547.331 71.5033,-540.475 78.6915,-539.9"/>
<text text-anchor="middle" x="76.0179" y="-530.235" font-family="Times,serif" font-size="14.00">*</text>
<text text-anchor="middle" x="417.313" y="-277.209" font-family="Times,serif" font-size="14.00">*</text>
</g>
<!-- keyserver -->
<g id="node17" class="node"><title>keyserver</title>
<polygon fill="white" stroke="white" points="446,-16.5 446,-52.5 515,-52.5 515,-16.5 446,-16.5"/>
<text text-anchor="middle" x="480.5" y="-30.8" font-family="Times,serif" font-size="14.00">keyserver</text>
</g>
<!-- public key&#45;&gt;keyserver -->
<g id="edge18" class="edge"><title>public key&#45;&gt;keyserver</title>
<path fill="none" stroke="black" d="M480.5,-176.096C480.5,-141.536 480.5,-94.7733 480.5,-64.8658"/>
<polygon fill="black" stroke="black" points="480.5,-64.79 476.5,-58.79 480.5,-52.79 484.5,-58.79 480.5,-64.79"/>
<text text-anchor="middle" x="496.5" y="-110.8" font-family="Times,serif" font-size="14.00">stores</text>
<text text-anchor="middle" x="486.839" y="-62.6846" font-family="Times,serif" font-size="14.00">*</text>
<text text-anchor="middle" x="474.161" y="-158.801" font-family="Times,serif" font-size="14.00">*</text>
</g>
<!-- key data to private key -->
<g id="node6" class="node"><title>key data to private key</title>
<polygon fill="white" stroke="none" points="772,-566 771,-566 771,-565 772,-565 772,-566"/>
</g>
<!-- key data to private key&#45;&gt;private key -->
<g id="edge7" class="edge"><title>key data to private key&#45;&gt;private key</title>
<path fill="none" stroke="black" d="M771.52,-566.579C772.287,-569.613 795.105,-659.869 807.939,-710.635"/>
<polygon fill="black" stroke="black" points="807.95,-710.682 813.299,-715.519 810.892,-722.316 805.543,-717.48 807.95,-710.682"/>
<text text-anchor="middle" x="801.414" y="-706.99" font-family="Times,serif" font-size="14.00">1</text>
</g>
<!-- key data to private key&#45;&gt;private key to smart card -->
<g id="edge10" class="edge"><title>key data to private key&#45;&gt;private key to smart card</title>
<path fill="none" stroke="black" stroke-dasharray="5,2" d="M772.32,-565.5C779.839,-565.5 836.699,-565.5 843.777,-565.5"/>
<text text-anchor="middle" x="808" y="-572.3" font-family="Times,serif" font-size="14.00">{xor}</text>
</g>
<!-- smart card -->
<g id="node8" class="node"><title>smart card</title>
<polygon fill="white" stroke="white" points="820.5,-377.5 820.5,-423.5 1028.5,-423.5 1028.5,-377.5 820.5,-377.5"/>
<text text-anchor="middle" x="924.5" y="-408.3" font-family="Times,serif" font-size="14.00">smart card</text>
<polyline fill="none" stroke="white" points="820.5,-400.5 1028.5,-400.5 "/>
<text text-anchor="start" x="828.5" y="-385.3" font-family="Times,serif" font-size="14.00">+ serial : Smart card serial number</text>
</g>
<!-- private key to smart card&#45;&gt;smart card -->
<g id="edge9" class="edge"><title>private key to smart card&#45;&gt;smart card</title>
<path fill="none" stroke="black" d="M844.478,-564.352C844.031,-561.309 837.124,-512.095 852.5,-478 860.598,-460.044 874.677,-443.623 888.251,-430.638"/>
<polygon fill="black" stroke="black" points="895.698,-423.789 891.383,-433.87 892.018,-427.174 888.337,-430.558 888.337,-430.558 888.337,-430.558 892.018,-427.174 885.291,-427.246 895.698,-423.789 895.698,-423.789"/>
<text text-anchor="middle" x="889.982" y="-433.957" font-family="Times,serif" font-size="14.00">1</text>
</g>
<!-- private key data -->
<g id="node9" class="node"><title>private key data</title>
<polygon fill="white" stroke="white" points="722.5,-382.5 722.5,-418.5 784.5,-418.5 784.5,-382.5 722.5,-382.5"/>
<text text-anchor="middle" x="753.5" y="-396.8" font-family="Times,serif" font-size="14.00">key data</text>
</g>
<!-- private key data&#45;&gt;key data to private key -->
<g id="edge6" class="edge"><title>private key data&#45;&gt;key data to private key</title>
<path fill="none" stroke="black" d="M755.404,-418.746C759.943,-459.847 771.054,-560.458 771.487,-564.382"/>
<text text-anchor="middle" x="763.198" y="-427.863" font-family="Times,serif" font-size="14.00">1</text>
</g>
<!-- signature -->
<g id="node10" class="node"><title>signature</title>
<polygon fill="white" stroke="white" points="460,-707.5 460,-783.5 695,-783.5 695,-707.5 460,-707.5"/>
<text text-anchor="middle" x="577.5" y="-768.3" font-family="Times,serif" font-size="14.00">signature</text>
<polyline fill="none" stroke="white" points="460,-760.5 695,-760.5 "/>
<text text-anchor="start" x="468" y="-745.3" font-family="Times,serif" font-size="14.00">+ hash : Hash of key that signed the uid</text>
<text text-anchor="start" x="468" y="-730.3" font-family="Times,serif" font-size="14.00">+ policy : URL to policy description</text>
<text text-anchor="start" x="468" y="-715.3" font-family="Times,serif" font-size="14.00">+ notation : Notation text</text>
</g>
<!-- uid -->
<g id="node14" class="node"><title>uid</title>
<polygon fill="white" stroke="white" points="360.5,-547.5 360.5,-583.5 414.5,-583.5 414.5,-547.5 360.5,-547.5"/>
<text text-anchor="middle" x="387.5" y="-561.8" font-family="Times,serif" font-size="14.00">uid</text>
</g>
<!-- signature&#45;&gt;uid -->
<g id="edge13" class="edge"><title>signature&#45;&gt;uid</title>
<path fill="none" stroke="black" d="M537.67,-707.185C500.827,-672.669 447.042,-622.282 414.834,-592.108"/>
<polygon fill="black" stroke="black" points="414.721,-592.002 407.608,-590.819 405.964,-583.798 413.077,-584.981 414.721,-592.002"/>
<text text-anchor="middle" x="420.219" y="-584.766" font-family="Times,serif" font-size="14.00">1</text>
<text text-anchor="middle" x="523.415" y="-698.817" font-family="Times,serif" font-size="14.00">*</text>
</g>
<!-- public key data -->
<g id="node11" class="node"><title>public key data</title>
<polygon fill="white" stroke="white" points="517.5,-382.5 517.5,-418.5 579.5,-418.5 579.5,-382.5 517.5,-382.5"/>
<text text-anchor="middle" x="548.5" y="-396.8" font-family="Times,serif" font-size="14.00">key data</text>
</g>
<!-- public key data&#45;&gt;public key -->
<g id="edge19" class="edge"><title>public key data&#45;&gt;public key</title>
<path fill="none" stroke="black" d="M541.856,-382.255C532.719,-358.539 515.844,-314.739 502.101,-279.067"/>
<polygon fill="black" stroke="black" points="502.077,-279.004 496.187,-274.844 497.763,-267.807 503.652,-271.968 502.077,-279.004"/>
<text text-anchor="middle" x="508.565" y="-274.513" font-family="Times,serif" font-size="14.00">1</text>
<text text-anchor="middle" x="531.053" y="-368.148" font-family="Times,serif" font-size="14.00">1</text>
</g>
<!-- sub&#45;key -->
<g id="node12" class="node"><title>sub&#45;key</title>
<polygon fill="white" stroke="white" points="451,-547.5 451,-583.5 510,-583.5 510,-547.5 451,-547.5"/>
<text text-anchor="middle" x="480.5" y="-561.8" font-family="Times,serif" font-size="14.00">sub&#45;key</text>
</g>
<!-- sub&#45;key&#45;&gt;public key -->
<g id="edge15" class="edge"><title>sub&#45;key&#45;&gt;public key</title>
<path fill="none" stroke="black" d="M480.5,-547.095C480.5,-497.99 480.5,-356.816 480.5,-277.955"/>
<polygon fill="none" stroke="black" points="484,-277.723 480.5,-267.723 477,-277.723 484,-277.723"/>
</g>
<!-- master key -->
<g id="node13" class="node"><title>master key</title>
<polygon fill="white" stroke="white" points="366,-382.5 366,-418.5 443,-418.5 443,-382.5 366,-382.5"/>
<text text-anchor="middle" x="404.5" y="-396.8" font-family="Times,serif" font-size="14.00">master key</text>
</g>
<!-- sub&#45;key&#45;&gt;master key -->
<g id="edge11" class="edge"><title>sub&#45;key&#45;&gt;master key</title>
<path fill="none" stroke="black" d="M472.51,-547.364C459.487,-519.434 433.554,-463.813 417.744,-429.904"/>
<polygon fill="black" stroke="black" points="417.682,-429.773 411.522,-426.025 412.611,-418.897 418.772,-422.644 417.682,-429.773"/>
<text text-anchor="middle" x="424.102" y="-424.839" font-family="Times,serif" font-size="14.00">1</text>
<text text-anchor="middle" x="461.02" y="-534.022" font-family="Times,serif" font-size="14.00">*</text>
</g>
<!-- master key&#45;&gt;public key -->
<g id="edge14" class="edge"><title>master key&#45;&gt;public key</title>
<path fill="none" stroke="black" d="M411.926,-382.255C422.314,-358.128 441.654,-313.216 457.153,-277.221"/>
<polygon fill="none" stroke="black" points="460.466,-278.376 461.206,-267.807 454.037,-275.607 460.466,-278.376"/>
</g>
<!-- uid&#45;&gt;master key -->
<g id="edge12" class="edge"><title>uid&#45;&gt;master key</title>
<path fill="none" stroke="black" d="M389.287,-547.364C392.162,-519.8 397.85,-465.266 401.397,-431.248"/>
<polygon fill="black" stroke="black" points="401.441,-430.832 398.085,-424.449 402.686,-418.897 406.042,-425.279 401.441,-430.832"/>
<text text-anchor="middle" x="407.58" y="-429.376" font-family="Times,serif" font-size="14.00">1</text>
<text text-anchor="middle" x="384.392" y="-529.485" font-family="Times,serif" font-size="14.00">*</text>
</g>
<!-- e&#45;mail uid -->
<g id="node15" class="node"><title>e&#45;mail uid</title>
<polygon fill="white" stroke="white" points="351,-727.5 351,-763.5 424,-763.5 424,-727.5 351,-727.5"/>
<text text-anchor="middle" x="387.5" y="-741.8" font-family="Times,serif" font-size="14.00">e&#45;mail uid</text>
</g>
<!-- e&#45;mail uid&#45;&gt;uid -->
<g id="edge16" class="edge"><title>e&#45;mail uid&#45;&gt;uid</title>
<path fill="none" stroke="black" d="M387.5,-727.433C387.5,-696.466 387.5,-630.799 387.5,-593.629"/>
<polygon fill="none" stroke="black" points="391,-593.516 387.5,-583.516 384,-593.516 391,-593.516"/>
</g>
<!-- photo uid -->
<g id="node16" class="node"><title>photo uid</title>
<polygon fill="white" stroke="white" points="246.5,-727.5 246.5,-763.5 314.5,-763.5 314.5,-727.5 246.5,-727.5"/>
<text text-anchor="middle" x="280.5" y="-741.8" font-family="Times,serif" font-size="14.00">photo uid</text>
</g>
<!-- photo uid&#45;&gt;uid -->
<g id="edge17" class="edge"><title>photo uid&#45;&gt;uid</title>
<path fill="none" stroke="black" d="M290.76,-727.433C309.614,-696.068 349.868,-629.102 372.046,-592.208"/>
<polygon fill="none" stroke="black" points="375.119,-593.89 377.271,-583.516 369.12,-590.283 375.119,-593.89"/>
</g>
</g>
</svg>
